Coordinates
version=1
nRows=54
nColumns=12
inDegrees=yes

Units are S.I. units (second, meters, Newtons, ...)
Angles are in degrees

endheader
time	SC_y	SC_z	SC_x	AC_y	AC_z	AC_x	GH_y	GH_z	GH_yy	EL_x	PS_y
       0.0              -44.54          11.91          49.73           36.4         -17.99         -3.947         -2.418          33.04          111.7          107.0          117.8
   0.03347              -44.54          11.91          49.73           36.4         -17.99         -3.949         -2.419          33.04          111.7          107.0          117.8
   0.06695              -44.53          11.91          49.73          36.41         -17.99         -3.951         -2.421          33.05          111.6          107.0          117.8
    0.1004              -44.53          11.91          49.73          36.41         -17.98         -3.954         -2.423          33.05          111.6          107.0          117.7
    0.1339              -44.52          11.91          49.74          36.41         -17.98         -3.956         -2.425          33.06          111.6          107.0          117.7
    0.1674              -44.52           11.9          49.74          36.42         -17.98         -3.959         -2.427          33.06          111.6          107.0          117.7
    0.2008              -44.51           11.9          49.74          36.42         -17.98         -3.962         -2.429          33.07          111.5          106.9          117.7
    0.2343               -44.5           11.9          49.74          36.43         -17.98         -3.965         -2.431          33.08          111.5          106.9          117.7
    0.2678               -44.5           11.9          49.74          36.43         -17.98         -3.969         -2.433          33.08          111.5          106.9          117.6
    0.3013              -44.49          11.89          49.75          36.44         -17.98         -3.972         -2.436          33.09          111.4          106.9          117.6
    0.3347              -44.48          11.89          49.75          36.44         -17.98         -3.976         -2.439           33.1          111.4          106.9          117.6
    0.3682              -44.47          11.89          49.75          36.45         -17.98          -3.98         -2.442          33.11          111.3          106.9          117.6
    0.4017              -44.47          11.89          49.75          36.45         -17.98         -3.985         -2.445          33.11          111.3          106.9          117.5
    0.4352              -44.46          11.88          49.76          36.46         -17.98          -3.99         -2.448          33.12          111.3          106.8          117.5
    0.4686              -44.45          11.88          49.76          36.47         -17.98         -3.995         -2.452          33.13          111.2          106.8          117.5
    0.5021              -44.43          11.87          49.76          36.48         -17.98         -4.001         -2.456          33.15          111.1          106.8          117.4
    0.5356              -44.42          11.87          49.77          36.49         -17.97         -4.007         -2.461          33.16          111.1          106.8          117.4
    0.5691              -44.41          11.87          49.77           36.5         -17.97         -4.014         -2.465          33.17          111.0          106.7          117.4
    0.6025              -44.39          11.86          49.78          36.51         -17.97         -4.021         -2.471          33.19          110.9          106.7          117.3
     0.636              -44.38          11.85          49.78          36.52         -17.97         -4.029         -2.476           33.2          110.9          106.7          117.3
    0.6695              -44.36          11.85          49.79          36.53         -17.97         -4.038         -2.483          33.22          110.8          106.6          117.2
     0.703              -44.34          11.84          49.79          36.54         -17.97         -4.048          -2.49          33.24          110.7          106.6          117.1
    0.7364              -44.32          11.83           49.8          36.56         -17.97         -4.059         -2.497          33.26          110.6          106.6          117.1
    0.7699              -44.29          11.82          49.81          36.58         -17.96         -4.071         -2.506          33.29          110.4          106.5          117.0
    0.8034              -44.27          11.81          49.82           36.6         -17.96         -4.084         -2.515          33.31          110.3          106.5          116.9
    0.8369              -44.24           11.8          49.82          36.62         -17.96         -4.099         -2.526          33.34          110.2          106.4          116.8
    0.8703               -44.2          11.79          49.84          36.64         -17.95         -4.116         -2.538          33.38          110.0          106.3          116.7
    0.9038              -44.17          11.78          49.85          36.67         -17.95         -4.135         -2.551          33.41          109.8          106.3          116.6
    0.9373              -44.13          11.76          49.86           36.7         -17.95         -4.156         -2.566          33.45          109.6          106.2          116.4
    0.9708              -44.08          11.75          49.88          36.73         -17.94          -4.18         -2.583           33.5          109.3          106.1          116.3
     1.004              -44.02          11.73          49.89          36.77         -17.94         -4.207         -2.603          33.56          109.1          106.0          116.1
     1.038              -43.96           11.7          49.91          36.81         -17.93         -4.239         -2.625          33.62          108.8          105.8          115.9
     1.071              -43.89          11.68          49.94          36.86         -17.93         -4.275         -2.651          33.69          108.4          105.7          115.7
     1.105               -43.8          11.65          49.96          36.92         -17.92         -4.317         -2.681          33.78          108.0          105.5          115.4
     1.138               -43.7          11.61          49.99          36.99         -17.91         -4.367         -2.716          33.88          107.5          105.3          115.1
     1.172              -43.59          11.57          50.03          37.08          -17.9         -4.425         -2.758          33.99          106.9          105.1          114.7
     1.205              -43.45          11.52          50.07          37.17         -17.88         -4.495         -2.807          34.13          106.2          104.8          114.2
     1.239              -43.28          11.46          50.12          37.29         -17.87         -4.578         -2.866           34.3          105.4          104.5          113.7
     1.272              -43.08          11.39          50.19          37.43         -17.85         -4.678         -2.937           34.5          104.4          104.1          113.1
     1.305              -42.84           11.3          50.26          37.61         -17.83         -4.801         -3.025          34.74          103.1          103.6          112.3
     1.339              -42.54          11.19          50.36          37.82          -17.8         -4.953         -3.132          35.04          101.6          103.0          111.3
     1.372              -42.16          11.06          50.48          38.09         -17.76         -5.142         -3.266          35.42          99.72          102.3          110.1
     1.406              -41.68          10.89          50.63          38.42         -17.72          -5.38         -3.436          35.89          97.33          101.3          108.5
     1.439              -41.08          10.67          50.82          38.85         -17.66         -5.682          -3.65           36.5           94.3          100.1          106.6
     1.473              -40.31           10.4          51.06           39.4         -17.59          -6.07         -3.926          37.27          90.42          98.56          104.1
     1.506              -39.32          10.04          51.37           40.1          -17.5         -6.567         -4.279          38.26          85.44          96.59          100.9
      1.54              -38.05          9.588          51.77          40.99         -17.38         -7.202          -4.73          39.52          79.08          94.06          96.77
     1.573              -36.46          9.018          52.27          42.12         -17.24           -8.0         -5.297          41.12          71.08          90.89          91.62
     1.607              -34.52          8.323          52.88          43.49         -17.06         -8.973         -5.988          43.05          61.34          87.02          85.33
      1.64              -32.27          7.518          53.59          45.08         -16.85          -10.1         -6.789           45.3          50.04          82.53          78.05
     1.674              -29.83          6.646          54.35          46.81         -16.62         -11.32         -7.656          47.73          37.81          77.68          70.17
     1.707               -27.4          5.774          55.12          48.53          -16.4         -12.54         -8.524          50.17          25.58          72.82          62.28
     1.741              -25.15          4.968          55.82          50.12         -16.19         -13.67         -9.325          52.41          14.28          68.34           55.0
     1.774              -23.21          4.273          56.43          51.49         -16.01         -14.64         -10.02          54.35          4.538          64.47          48.72
